<?xml version="1.0" encoding="utf-8"?>
<!-- Generator: Adobe Illustrator 18.1.0, SVG Export Plug-In . SVG Version: 6.00 Build 0)  -->
<svg version="1.1" id="Capa_1" xmlns="http://www.w3.org/2000/svg" xmlns:xlink="http://www.w3.org/1999/xlink" x="0px" y="0px"
	 width="64px"  fill="#ffffff" height="64px" viewBox="0 0 1000 1000" enable-background="new 0 0 1000 1000" xml:space="preserve">
<path d="M804.3,387.6c-0.2,0-0.3,0-0.5,0c-7.7-121.7-108.9-218-232.5-218c-114.1,0-209,82-229.1,190.2c-2.6-0.1-5.3-0.2-7.9-0.2
	c-85,0-156.7,56.3-180.1,133.6c-3.6-0.3-7.3-0.5-11-0.5c-67.1,0-121.6,54.4-121.6,121.6S76,735.9,143.1,735.9c1,0,661.1,0,661.1,0
	c96.2,0,174.1-78,174.1-174.1S900.5,387.6,804.3,387.6z"/>
</svg>
