<?xml version="1.0" encoding="iso-8859-1"?>
<!-- Generator: Adobe Illustrator 17.1.0, SVG Export Plug-In . SVG Version: 6.00 Build 0)  -->
<!DOCTYPE svg PUBLIC "-//W3C//DTD SVG 1.1//EN" "http://www.w3.org/Graphics/SVG/1.1/DTD/svg11.dtd">
<svg version="1.1" id="Layer_1" xmlns="http://www.w3.org/2000/svg" xmlns:xlink="http://www.w3.org/1999/xlink" x="0px" y="0px"
	 viewBox="0 0 64 64" fill="#ffffff" style="enable-background:new 0 0 64 64;" xml:space="preserve">
<path d="M47.786,10.118c-0.736,0-1.43,0.167-2.059,0.451c-1.257-2.506-3.843-4.231-6.838-4.231c-1.948,0-3.721,0.734-5.072,1.933
	c-2.272-1.94-5.273-3.132-8.574-3.132c-6.988,0-12.659,5.293-12.803,11.871C9.82,18.226,8,20.872,8,23.949
	c0,3.556,2.429,6.538,5.717,7.396l35.407,0.243c4.097-0.147,7.376-3.506,7.376-7.639c0-2.951-1.672-5.507-4.119-6.784
	c0.273-0.62,0.431-1.301,0.431-2.022C52.812,12.368,50.562,10.118,47.786,10.118z"/>
<path d="M20.163,44.079c0.889-1.719,0.996-9.554,0.996-9.554s-6.332,4.616-7.221,6.335s-0.216,3.833,1.503,4.722
	C17.16,46.471,19.274,45.798,20.163,44.079z"/>
<path d="M33.163,44.079c0.889-1.719,0.996-9.554,0.996-9.554s-6.332,4.616-7.221,6.335s-0.216,3.833,1.503,4.722
	C30.16,46.471,32.274,45.798,33.163,44.079z"/>
<path d="M42.442,45.582c1.719,0.889,3.833,0.216,4.722-1.503c0.889-1.719,0.996-9.554,0.996-9.554s-6.332,4.616-7.221,6.335
	S40.723,44.693,42.442,45.582z"/>
<path d="M18.442,58.582c1.719,0.889,3.833,0.216,4.722-1.503c0.889-1.719,0.996-9.554,0.996-9.554s-6.332,4.616-7.221,6.335
	S16.723,57.693,18.442,58.582z"/>
<path d="M31.442,58.582c1.719,0.889,3.833,0.216,4.722-1.503c0.889-1.719,0.996-9.554,0.996-9.554s-6.332,4.616-7.221,6.335
	S29.723,57.693,31.442,58.582z"/>
</svg>
